<?xml version="1.0" encoding="UTF-8"?>
<!DOCTYPE svg PUBLIC "-//W3C//DTD SVG 1.1//EN" "http://www.w3.org/Graphics/SVG/1.1/DTD/svg11.dtd">
<!-- Creator: CorelDRAW 2020 (64-Bit Evaluation Version) -->
<svg xmlns="http://www.w3.org/2000/svg" xml:space="preserve" width="4.09161in" height="0.846413in" version="1.1" style="shape-rendering:geometricPrecision; text-rendering:geometricPrecision; image-rendering:optimizeQuality; fill-rule:evenodd; clip-rule:evenodd"
viewBox="0 0 10123.5 2094.21"
 xmlns:xlink="http://www.w3.org/1999/xlink"
 xmlns:xodm="http://www.corel.com/coreldraw/odm/2003">
 <defs>
  <style type="text/css">
   <![CDATA[
    .fil12 {fill:#373435}
    .fil11 {fill:#96989A;fill-rule:nonzero}
    .fil3 {fill:#373435;fill-rule:nonzero}
    .fil8 {fill:#373435;fill-rule:nonzero}
    .fil10 {fill:#FFE295;fill-rule:nonzero}
    .fil7 {fill:#FFCC29;fill-rule:nonzero}
    .fil4 {fill:#F49CC2;fill-rule:nonzero}
    .fil6 {fill:#EC268F;fill-rule:nonzero}
    .fil2 {fill:#ED3237;fill-rule:nonzero}
    .fil9 {fill:#71D0F6;fill-rule:nonzero}
    .fil1 {fill:#2A714B;fill-rule:nonzero}
    .fil0 {fill:#2A714B;fill-rule:nonzero}
    .fil5 {fill:#00AFEF;fill-rule:nonzero}
   ]]>
  </style>
 </defs>
 <g id="Layer_x0020_1">
  <metadata id="CorelCorpID_0Corel-Layer"/>
  <g id="_1210759440">
   <polygon class="fil0" points="2252.34,186.96 2180.14,356.02 1542.04,356.02 1432.04,614.41 1852.01,614.41 1780.53,782.1 1360.59,782.1 1198.71,1161.87 980.53,1161.87 1142.38,782.1 1213.86,614.41 1323.79,356.02 1395.99,186.96 "/>
   <polygon class="fil0" points="2899,992.43 2826.84,1161.88 1945.74,1161.88 2017.9,992.43 2107.6,782.12 2179.07,614.42 2289.04,356.01 2361.21,186.97 2579.07,186.97 2506.9,356.01 2396.95,614.42 2325.47,782.12 2236.12,992.43 "/>
   <polygon class="fil0" points="3416.04,487.97 3362.12,614.43 3728.64,614.43 3747.53,570.11 3757.16,547.77 3771.59,513.75 3786.4,529.9 3824.85,571.79 3863.72,613.75 3864.07,614.43 3901.83,655.68 3915.61,670.45 3940.66,697.6 3894.3,726.12 3891.87,727.5 3843.41,757.39 3803.2,782.13 3794.99,787.29 3746.54,817.18 3698.08,846.71 3649.29,876.63 3605.61,903.44 3627.26,852.58 3643.44,814.43 3651.31,796.22 3657.16,782.13 3290.64,782.13 3201.26,992.44 3814.7,992.44 3742.5,1161.86 2935.66,1161.86 3007.79,992.44 3278.96,356.02 3351.09,186.95 4157.99,186.95 4085.79,356.02 3472.09,356.02 3464.15,374.92 3440.09,431.27 "/>
   <polygon class="fil0" points="9014.77,186.96 8611.34,1133.69 8611.34,1134.03 8599.65,1161.87 8405.15,1161.87 8393.47,1133.69 8099.31,442.93 7793.12,1161.87 7574.92,1161.87 7990.03,186.96 8207.94,186.96 8208.25,187.3 8502.41,877.67 8796.55,186.96 "/>
   <polygon class="fil0" points="10123.5,186.96 10051.31,356.02 9660.62,356.02 9317.63,1161.87 9099.45,1161.87 9442.37,356.02 9051.65,356.02 9123.85,186.96 "/>
   <path class="fil1" d="M6086 403.11l-20.66 48.41 -23.67 56.05 -13.4 30.59 -14.1 32.64c-10.65,24.06 -38.83,43.61 -62.54,43.61l-568.73 0 109.97 -258.38 566.63 0c25.76,0 37.14,20.92 26.5,47.08zm220.27 -216.15l-959.45 0 -415.49 974.91 218.25 0 161.85 -379.75 766.66 0c34.71,0 74.92,-28.15 90.04,-62.51l39.86 -91.07 6.16 -14.12 110 -258.38 6.88 -15.47 28.17 -66.7c18.19,-42.96 -4.12,-86.91 -52.91,-86.91z"/>
   <polygon class="fil0" points="7880.95,186.96 7465.83,1161.87 7247.58,1161.87 7662.7,186.96 "/>
   <path class="fil0" d="M7464.06 186.97l-895.18 0c-34.71,0 -74.95,28.15 -90.04,62.51l-32.64 74.23 -6.88 16.84 -0.34 0 -6.57 15.47 -270.75 636.42 -6.88 15.81 -28.18 66.36c-18.21,42.96 4.13,87.28 52.92,87.28l895.19 0c34.71,0 74.91,-28.21 90.03,-62.58l28.18 -64.26 1.37 -3.4 9.97 -23.4 6.88 -15.81 270.75 -636.42 6.91 -15.47 28.18 -66.67c18.22,-42.96 -4.12,-86.91 -52.92,-86.91zm-752.7 169.59l493.94 0c32.91,0 48.27,26.93 34.13,59.84l-221.66 516.19c-14.13,32.91 -52.62,59.84 -85.54,59.84l-493.94 0c-32.91,0 -48.27,-26.93 -34.13,-59.84l221.66 -516.19c14.13,-32.91 52.62,-59.84 85.54,-59.84z"/>
   <g>
    <path class="fil2" d="M4948.41 1360.27c107.34,15.29 225,-6.3 326.84,-37.26 -80.14,19.71 -165.26,29.63 -246.57,16.76 -505.73,-80.1 -400.62,-1247.68 -896.5,-1334.37 -114.82,-20.07 -232.04,18.91 -335.58,65 79.41,-35.24 179.49,-70.31 267.51,-53.21 434.17,84.38 263.95,1254.71 884.31,1343.07z"/>
    <g>
     <path class="fil2" d="M5035.31 334.35c102.39,-105.47 172.11,-149.36 193.97,-147.16 6.76,0.93 4.02,10.94 -5.48,33.14 -18.98,44.99 -56.28,116.49 -118.78,211.65 -13.41,20.39 -30.58,40.09 -50.9,60.2 -20.25,19.71 -33.26,28.86 -37.72,28.76 -9.09,-0.75 -5.43,-21.55 11.22,-62.56 16.75,-40.64 18.85,-61.74 6.45,-62.61 -10.6,-0.93 -26.76,10.69 -48.34,35.11 -130.92,150.15 -267.43,311.38 -395.98,467.72 -82.3,98.34 -249.3,303.31 -518.87,595.16 -193.37,202.96 -363.17,347.41 -508.8,434.58 -213.05,129.28 -433.82,182.96 -662.53,161.1 -245.07,-24.06 -653.42,-349.14 -553.65,-617.62 15.14,-40.74 89.96,-139.13 138.8,-141.5 -99.19,314.75 210.62,629.59 518.4,659.31 250.11,24.86 510.43,-62.94 780.77,-264.84 85.96,-63.76 240.07,-220.86 462.24,-470.72 161.72,-183.03 273.05,-312.18 333.25,-388.31 152.53,-177.3 292.67,-364.67 455.97,-531.43z"/>
     <path class="fil2" d="M4564.25 822.61c-75.3,88.52 -306.47,354.18 -533.81,596 -165.69,177.64 -315.36,301.87 -441.86,377.82 -181.68,109.72 -374.78,146.9 -561.57,131 -222.98,-18.91 -567.06,-278.51 -495.31,-528.59 10.5,-35.9 78.52,-119.71 120.81,-122.51 -172.36,302.83 161.48,575.25 428.99,600.31 465.85,46.07 832.8,-363.03 1101.59,-666.62 116.24,-130.86 267.05,-281.39 370.27,-418.37l118.1 -146.06c114.92,-122.42 341.2,-471.82 552.33,-458.24 -206.57,35.46 -514.82,476.58 -659.55,635.25z"/>
    </g>
   </g>
   <path class="fil3" d="M5053.69 1581.06c8.9,-21.43 19.03,-36.07 30.3,-43.92 11.27,-7.85 28.39,-11.82 51.34,-11.82l173.77 0c23.03,0 36.94,3.96 41.68,11.82 4.81,7.85 2.77,22.49 -6.14,43.92l-51.79 124.59c-8.94,21.5 -19.1,36.22 -30.41,44 -11.27,7.85 -28.44,11.74 -51.47,11.74l-25.46 0 4.44 60.84 -54.51 0 -1.32 -60.84 -96.91 0c-22.95,0 -36.81,-3.89 -41.56,-11.74 -4.77,-7.78 -2.7,-22.5 6.24,-44l51.79 -124.59zm-1.62 135.95l80.9 0 -0.69 -51.16 46.49 -16.09 3.98 67.25 50.48 0 62.19 -149.6 -181.16 0 -62.19 149.6z"/>
   <path class="fil3" d="M5477.12 1525.32l-80.93 191.68 156.47 0 80.93 -191.68 54.9 0 -76.13 180.33c-9.08,21.5 -19.34,36.22 -30.7,44 -11.33,7.85 -28.52,11.74 -51.55,11.74l-149.07 0c-22.79,0 -36.56,-3.89 -41.32,-11.74 -4.88,-7.78 -2.7,-22.5 6.38,-44l76.13 -180.33 54.89 0z"/>
   <path class="fil3" d="M5786.16 1667.14l103.55 0 -11.08 -96.08 -92.47 96.08zm-144.86 94.24l231.8 -236.06 52.99 0 37.29 236.06 -61.69 0 -6.88 -51.7 -149.75 0 -49.02 51.7 -54.74 0z"/>
   <polygon class="fil3" points="6016.77,1761.39 6117.07,1525.32 6171.96,1525.32 6090.52,1717.01 6267.57,1717.01 6248.71,1761.39 "/>
   <polygon class="fil3" points="6656.38,1567.4 6575.54,1761.39 6520.64,1761.39 6601.48,1567.4 6493.05,1567.4 6510.59,1525.32 6782.8,1525.32 6765.27,1567.4 "/>
   <polygon class="fil3" points="6860.71,1761.39 6904.6,1655.78 6836.23,1525.32 6909.5,1525.32 6952.87,1615.98 7071.83,1525.32 7136.34,1525.32 6960.53,1654.41 6916.07,1761.39 "/>
   <polygon class="fil3" points="7177.78,1761.39 7278.24,1525.32 7333.13,1525.32 7232.67,1761.39 "/>
   <path class="fil3" d="M7285.9 1761.39l100.44 -236.06 37.51 0 107.01 139.15c3.69,4.58 6.8,8.92 9.39,13.04 2.6,4.11 4.7,8.31 6.44,12.65 4.8,-13.27 8.19,-22.65 10.22,-28.13 2.07,-5.57 3.7,-9.76 4.97,-12.74l52.75 -123.97 49.41 0 -100.44 236.06 -37.51 0 -111.33 -145.86c-2.53,-3.74 -4.8,-7.01 -6.62,-10.07 -1.86,-2.97 -3.46,-6.02 -4.8,-9.15 -2.43,7.33 -4.73,14.18 -7.11,20.66 -2.38,6.49 -4.63,12.13 -6.63,16.85l-54.28 127.57 -49.41 0z"/>
   <polygon class="fil3" points="7951.5,1567.37 7870.85,1761.39 7815.95,1761.39 7896.6,1567.37 7788.15,1567.37 7806.05,1525.27 8078.33,1525.27 8060.41,1567.37 "/>
   <polygon class="fil3" points="8030.94,1761.39 8131.36,1525.27 8186.28,1525.27 8085.85,1761.39 "/>
   <path class="fil3" d="M8138.92 1761.39l100.6 -236.11 44.39 0 50.5 142.77 169.51 -142.77 44 0 -100.6 236.11 -50.78 0 62.16 -145.89c1.2,-2.82 2.88,-6.41 5.08,-10.68 2.23,-4.34 4.81,-9.15 7.66,-14.57 -5.58,6.11 -10.32,11.14 -14.22,15.1 -3.97,3.97 -7.33,7.18 -10.15,9.69l-139.02 117.97 -10.91 0 -38.57 -118.35c-1.36,-4.5 -2.39,-8.69 -2.98,-12.66 -0.6,-3.96 -0.89,-7.77 -0.82,-11.51 -1.66,4.96 -3.17,9.38 -4.66,13.42 -1.49,4.04 -3.03,7.85 -4.63,11.59l-62.16 145.89 -44.39 0z"/>
   <polygon class="fil3" points="8500.44,1761.39 8601.01,1525.27 8842.61,1525.27 8825.57,1565.54 8639.18,1565.54 8617.31,1618.16 8726.2,1618.16 8709.47,1658.43 8600.58,1658.43 8576.22,1717 8761.08,1717 8742.17,1761.39 "/>
   <polygon class="fil3" points="6302.02,1761.39 6402.48,1525.32 6457.37,1525.32 6356.91,1761.39 "/>
   <polygon class="fil4" points="887.26,186.77 472.15,1161.68 435.73,1161.68 850.86,186.77 "/>
   <polygon class="fil5" points="215.99,1037.87 163.23,1161.68 -0,1161.68 415.11,186.77 525.94,186.77 163.23,1037.87 "/>
   <polygon class="fil6" points="434.16,1037.87 381.44,1161.68 217.87,1161.68 632.98,186.77 743.83,186.77 381.44,1037.87 "/>
   <polygon class="fil7" points="652.36,1037.87 599.65,1161.68 435.73,1161.68 850.86,186.77 962.05,186.77 599.65,1037.87 "/>
   <polygon class="fil8" points="870.23,1037.87 817.51,1161.68 653.94,1161.68 1069.05,186.77 1179.9,186.77 817.49,1037.87 "/>
   <polygon class="fil9" points="217.87,1037.87 163.23,1037.87 578.69,62.97 632.98,62.97 "/>
   <polygon class="fil4" points="435.73,1037.87 381.44,1037.87 796.55,62.97 850.86,62.97 "/>
   <polygon class="fil10" points="653.94,1037.87 599.65,1037.87 1014.77,62.97 1069.05,62.97 "/>
   <polygon class="fil11" points="871.79,1037.87 817.49,1037.87 1232.62,62.97 1286.9,62.97 "/>
   <polygon class="fil12" points="9164.33,1525.26 8945.84,1525.29 8845.58,1761.39 9063.82,1761.39 "/>
   <polygon class="fil12" points="4975.4,1525.26 4756.92,1525.29 4656.65,1761.39 4874.89,1761.39 "/>
  </g>
 </g>
</svg>
